<svg id="skyline" data-name="skyline" xmlns="http://www.w3.org/2000/svg" viewBox="0 0 1879 388"><path d="M1785.22,180.26a39.33,39.33,0,0,0-.36,5.25c0,10.5,6.34,18.72,14.35,24.8l.78,3,12.29,6.86,0-.06-.63-6.31,6-2.19-11.51-8.12-2.84.57c-6.06-4.58-10.77-10.67-10.77-18.53,0-1.06.06-2.1.16-3.13a1.61,1.61,0,0,0,1.25.61h2.35a1.65,1.65,0,0,0,1.59-1.25l.56-2.29v1.9a1.63,1.63,0,0,0,1.64,1.64h8.33a1.63,1.63,0,0,0,1.57-1.18v0a6.33,6.33,0,0,0,4.26,1.35,7.85,7.85,0,0,0,3-.52,4.74,4.74,0,0,0,2.23-1.86,4.82,4.82,0,0,0,.78-2.64,4.9,4.9,0,0,0-.68-2.61,5.65,5.65,0,0,0-.45-.61,1.64,1.64,0,0,0,.77-1.06h1.41v7.47A1.63,1.63,0,0,0,1823,183h2.21a1.63,1.63,0,0,0,1.64-1.64v-7.47h1.39v7.47a1.64,1.64,0,0,0,1.64,1.64h8.34a1.62,1.62,0,0,1,1.88,0h2.21a1.63,1.63,0,0,0,1.64-1.64v-2l.39.58,1.6,2.38a1.65,1.65,0,0,0,1.37.73h.91c.07.83.11,1.67.11,2.52,0,13.85-12.25,28.75-25.91,32.46l-.23-4-14,12.76,18.89.6-1.77-2.26c16.55-5,30.63-22.51,30.63-39.58a36.51,36.51,0,0,0-.23-4.08l.49.78a1.64,1.64,0,0,0,1.4.78h2.22a1.64,1.64,0,0,0,1.64-1.64v-11a1.64,1.64,0,0,0-1.64-1.64h-2.06a1.63,1.63,0,0,0-1.64,1.64v1.5l-1.45-2.36a1.65,1.65,0,0,0-1.4-.78H1852c-5.82-11.34-17.52-18.78-31.59-18.78-14.48,0-26.46,7.89-32.09,19.8a1.62,1.62,0,0,0-1.49-1h-2.26a1.64,1.64,0,0,0-1.6,2Zm23.18,1.09h-8.33v-11h8.12v1.85h-5.91v2.43h5.5v1.85h-5.5v3h6.12Zm9.71-1.43a3.13,3.13,0,0,1-1.48,1.22,6.19,6.19,0,0,1-2.39.4,4.75,4.75,0,0,1-3.19-1,4.16,4.16,0,0,1-1.33-2.8l2.15-.21a2.61,2.61,0,0,0,.79,1.6,2.38,2.38,0,0,0,1.6.51,2.45,2.45,0,0,0,1.61-.46,1.32,1.32,0,0,0,.55-1.05,1,1,0,0,0-.23-.67,1.79,1.79,0,0,0-.8-.47q-.39-.14-1.77-.48a6,6,0,0,1-2.5-1.08,2.88,2.88,0,0,1-1-2.21,2.76,2.76,0,0,1,.48-1.56,3,3,0,0,1,1.37-1.12,5.51,5.51,0,0,1,2.15-.38,4.65,4.65,0,0,1,3.11.91,3.15,3.15,0,0,1,1.09,2.41l-2.21.1a1.84,1.84,0,0,0-.61-1.21,2.21,2.21,0,0,0-1.4-.37,2.58,2.58,0,0,0-1.51.39.81.81,0,0,0-.35.68.86.86,0,0,0,.33.67,5.87,5.87,0,0,0,2,.73,10.62,10.62,0,0,1,2.39.79,3,3,0,0,1,1.21,1.11,3.45,3.45,0,0,1-.08,3.51Zm10.3-7.68h-3.24v9.11H1823v-9.11h-3.25v-1.85h8.7Zm9.77,9.11h-8.34v-11H1838v1.85h-5.92v2.43h5.51v1.85h-5.51v3h6.13Zm13-11h2.15l4.49,7.32v-7.32h2.06v11h-2.22l-2.59-4.18-1.83-3v7.15h-2.06Zm-6.41,0a7.83,7.83,0,0,1,2.55.3,2.47,2.47,0,0,1,1.28,1.05,3.22,3.22,0,0,1,.47,1.72,2.94,2.94,0,0,1-.72,2,3,3,0,0,1-1.43.85,5.06,5.06,0,0,1-.74.16,5.44,5.44,0,0,1,1,.78l.16.14a13.32,13.32,0,0,1,1.26,1.78l1.33,2.14h-2.64l-1.6-2.39a16.74,16.74,0,0,0-1.17-1.61,1.69,1.69,0,0,0-.66-.45,3.74,3.74,0,0,0-1.12-.13h-.45v4.58h-2.21v-11h4.66Zm-24.32-12.76A27.45,27.45,0,0,1,1843,168.75h-3a1.64,1.64,0,0,0-1,.39,1.59,1.59,0,0,0-1-.39h-8.13a1.52,1.52,0,0,0-.71.17,1.59,1.59,0,0,0-.72-.17h-8.7a1.64,1.64,0,0,0-1.53,1,6.25,6.25,0,0,0-4.07-1.23,7.14,7.14,0,0,0-2.8.52,4.71,4.71,0,0,0-1.51,1,1.63,1.63,0,0,0-1.61-1.34h-8.12a1.58,1.58,0,0,0-.58.11,1.46,1.46,0,0,0-.55-.11h-1.17A27.43,27.43,0,0,1,1820.4,157.63Zm-33.58,12.76.42,1.92,1.23,5.61,2-7.53h2.63l1.21,4.84.71,2.82,1.68-7.66h2.23l-2.66,11h-2.35l-.67-2.52-1.51-5.67-2.18,8.19h-2.4l-1.19-5-1.42-6Z"/><path d="M1845.9,174.89a1.28,1.28,0,0,0,.38-.21,1.14,1.14,0,0,0,.24-.25,1.44,1.44,0,0,0,.22-.82,1.32,1.32,0,0,0-.29-.9,1.36,1.36,0,0,0-.84-.43l-.42,0-1.19,0h-1.73V175h1.64A8.32,8.32,0,0,0,1845.9,174.89Z"/><polygon points="1805.16 195.38 1808.15 195.38 1806.64 191.32 1805.16 195.38"/><path d="M1838.41,198a2.77,2.77,0,0,0,2.17-1,4.19,4.19,0,0,0,.85-2.86,4.14,4.14,0,0,0-.83-2.81,3.08,3.08,0,0,0-4.4,0,5.14,5.14,0,0,0,0,5.66A2.82,2.82,0,0,0,1838.41,198Zm-1-5.52a1.18,1.18,0,0,1,1-.39,1.19,1.19,0,0,1,1,.37,2.79,2.79,0,0,1,.41,1.72,2.72,2.72,0,0,1-.44,1.77,1.12,1.12,0,0,1-.94.41,1.2,1.2,0,0,1-1-.42,2.81,2.81,0,0,1-.44-1.73A2.75,2.75,0,0,1,1837.42,192.5Z"/><path d="M1815.6,187.12h-2.21a1.65,1.65,0,0,0-1.65,1.64v5.35l-2.38-6a1.64,1.64,0,0,0-1.52-1h-2.34a1.65,1.65,0,0,0-1.53,1l-4.27,11a1.64,1.64,0,0,0,1.53,2.23h2.35a1.64,1.64,0,0,0,1.54-1.08l.51-1.41h2.11l.55,1.44a1.64,1.64,0,0,0,1.53,1.05h2.41a1.63,1.63,0,0,0,1.35-.72,1.38,1.38,0,0,0,.14-.27,5.12,5.12,0,0,0,1.11.67,7.54,7.54,0,0,0,3.06.51,7.08,7.08,0,0,0,2.73-.46,4.84,4.84,0,0,0,1.9-1.34,4.73,4.73,0,0,0,1-2.09,16.61,16.61,0,0,0,.21-3.14v-2.26h1.52v7.46a1.64,1.64,0,0,0,1.64,1.64h2.22a1.64,1.64,0,0,0,1.64-1.64v-7.46h.87a9.42,9.42,0,0,0-.21,2.05,7.24,7.24,0,0,0,1.91,5.25,7.39,7.39,0,0,0,10.1,0,8.34,8.34,0,0,0,0-10.61,6.76,6.76,0,0,0-5.06-2,7.63,7.63,0,0,0-3,.56,6,6,0,0,0-1.42.9,1.63,1.63,0,0,0-1.59-1.27h-8.71a1.6,1.6,0,0,1-1.55,0h-2.21a1.65,1.65,0,0,0-1.64,1.64v6.06c0,1,0,1.43,0,1.5s-.11.06-.43.06-.47-.07-.47-.08a.1.1,0,0,1-.06-.08,13.62,13.62,0,0,1,0-1.52v-5.94A1.65,1.65,0,0,0,1815.6,187.12Zm-5.78,12.6-1-2.49h-4.38l-.9,2.49h-2.35l4.27-11h2.34l4.39,11Zm23.76-8.22a5.11,5.11,0,0,1,1-1.5,4.26,4.26,0,0,1,1.42-1,6,6,0,0,1,2.36-.43,5.15,5.15,0,0,1,3.88,1.5,6.73,6.73,0,0,1,0,8.33,5.76,5.76,0,0,1-7.74,0,5.65,5.65,0,0,1-1.45-4.11A7,7,0,0,1,1833.58,191.5Zm-9.91-2.74h8.71v1.86h-3.24v9.1h-2.22v-9.1h-3.25Zm-5.85,9.26a2.21,2.21,0,0,0,1.42-.39,1.49,1.49,0,0,0,.57-.94,11.73,11.73,0,0,0,.1-1.87v-6.06h2.21v5.76a14.85,14.85,0,0,1-.18,2.79,3,3,0,0,1-.66,1.37,3.35,3.35,0,0,1-1.29.9,5.6,5.6,0,0,1-2.1.33,6.18,6.18,0,0,1-2.39-.36,3.52,3.52,0,0,1-1.28-1,3,3,0,0,1-.62-1.21,13.77,13.77,0,0,1-.21-2.78v-5.85h2.21v5.94a13.19,13.19,0,0,0,.08,1.83,1.78,1.78,0,0,0,.68,1.08A2.35,2.35,0,0,0,1817.82,198Z"/><path d="M1762,238.81v38.5h-75.52V158.86h-31.09v17.76H1625.8V158.86h-57.75v17.76H1537V277.31h-63.67V198.83h-5.18l-2.47-37h-79.46l-2.47,37h-3.52V151.45H1375V129.24h-3.7V111.47h-5.93V101.11h-28.13v10.36h-5.92v17.77h-3.7v22.21h-5.19V277.31h-18V250.66h-65.7V178.1h-3.71V160.34h-4.44V138.13h-7.4V121.84h-6.11V107h-17.77v14.81h-23.5v16.29h-7.41v22.21H1164V178.1h-3.7v72.56H1065V114.43l-18.51-10.36h-34.06l-18.5,10.36V250.66h-30V64.09H922.47v-7.4L901,36,879.53,56.69v7.4H867.69V277.31H845.48V96.67l-3-3V70l-4.44-3V33l-2.3-4.45h-12.5V6.34L816.68.42H781L774.4,6.34V28.55H756L753.67,33V68l-3,2V93.7l-3,3v134.1l-7.81,4.45v42.09H726.07V111.47H713.49l.14-16.28-12-25.64.15-20.27L694.24,36l-7.55,13.32.15,20.27-9.22,19.71H661.87v72.56h.53V277.31H641.14V198.83h-8.88V167.74h-7.41V148.49h-5.92V136.64H593.76v11.85H579v19.25H565.62v31.09h-4.44v78.48H536V155.89h-7.4v4.45H500.47v-5.93H469.38v5.93H373.13v-4.45h-7.4v76.7l-14.81,1.78v17.86h-28c-1.3-11.19-3.05-19.34-3.05-19.34H309.46V221H297.62v-8.88H285.77v-5.92H275.41V201.8H260.6v3.93H248.76v5h-8.89v8.32h-.74v-24.7H234v-62.8l6.34-8.27H233l3.9-7.41H222.1l3.9,7.41h-7.27l6.34,8.27V184H170.23V131.59l6.34-8.27H169.3l3.89-7.41h-14.8l3.89,7.41H155l6.34,8.27v62.8h-8.1v19.25h-6.66V203.28H134.74v-9.14h-14.8v-5.55H106.61v-3.52h-.09V131.59l6.34-8.27h-7.28l3.9-7.41H94.67l3.9,7.41H91.29l6.34,8.27v53.48H94.76v-2.52H80S61.81,184.24,42.8,197V131.59l6.34-8.27H41.87l3.89-7.41H31l3.89,7.41H27.58l6.34,8.27v72.29C18.15,217.69,3.67,240.33.61,277.31H0V388.36H1879V238.81Z"/></svg>